<svg width="16" height="16" viewBox="0 0 16 16" fill="none" xmlns="http://www.w3.org/2000/svg">
<g clip-path="url(#clip0_20_987)">
<path d="M15.0588 2.01191H0.941176C0.917986 2.01191 0.877172 2.00236 0.83358 1.95384C0.78761 1.90267 0.75 1.81761 0.75 1.71429C0.75 1.61096 0.78761 1.52591 0.83358 1.47474C0.877172 1.42622 0.917986 1.41667 0.941176 1.41667H15.0588C15.082 1.41667 15.1228 1.42622 15.1664 1.47474C15.2124 1.5259 15.25 1.61096 15.25 1.71429C15.25 1.81762 15.2124 1.90267 15.1664 1.95384C15.1228 2.00236 15.082 2.01191 15.0588 2.01191ZM15.0588 8.29762H0.941176C0.917987 8.29762 0.877172 8.28807 0.83358 8.23955C0.78761 8.18838 0.75 8.10333 0.75 8C0.75 7.89667 0.78761 7.81162 0.83358 7.76045L0.275664 7.25922L0.83358 7.76045C0.877172 7.71193 0.917986 7.70238 0.941176 7.70238H15.0588C15.082 7.70238 15.1228 7.71193 15.1664 7.76045L15.7243 7.25922L15.1664 7.76045C15.2124 7.81162 15.25 7.89667 15.25 8C15.25 8.10333 15.2124 8.18838 15.1664 8.23955C15.1228 8.28807 15.082 8.29762 15.0588 8.29762ZM15.0588 14.5833H0.941176C0.917985 14.5833 0.877171 14.5738 0.83358 14.5253C0.78761 14.4741 0.75 14.389 0.75 14.2857C0.75 14.1824 0.78761 14.0973 0.83358 14.0462C0.877171 13.9976 0.917985 13.9881 0.941176 13.9881H15.0588C15.082 13.9881 15.1228 13.9976 15.1664 14.0462C15.2124 14.0973 15.25 14.1824 15.25 14.2857C15.25 14.389 15.2124 14.4741 15.1664 14.5253C15.1228 14.5738 15.082 14.5833 15.0588 14.5833Z" fill="#6B7280" stroke="#6B7280" stroke-width="1.5"/>
</g>
<defs>
<clipPath id="clip0_20_987">
<rect width="16" height="16" fill="white"/>
</clipPath>
</defs>
</svg>
