<svg width="48" height="48" viewBox="0 0 48 48" fill="none" xmlns="http://www.w3.org/2000/svg">
<path d="M0 8.00012C0 3.58185 3.58172 0.00012207 8 0.00012207H40C44.4183 0.00012207 48 3.58184 48 8.00012V40.0001C48 44.4184 44.4183 48.0001 40 48.0001H8C3.58172 48.0001 0 44.4184 0 40.0001V8.00012Z" fill="#E1EFFE"/>
<g clip-path="url(#clip0_1_25111)">
<path d="M34 15.6001C34 13.6153 32.2585 12.0001 30.1185 12.0001C27.9785 12.0001 26.237 13.6153 26.237 15.6001C26.237 16.9369 27.0353 18.0925 28.2049 18.7129C28.0717 20.3233 26.6316 21.6001 24.8617 21.6001H22.5457C21.2946 21.6001 20.1353 21.9637 19.1753 22.5769V18.9793C20.6774 18.4825 21.763 17.1625 21.763 15.6001C21.763 13.6153 20.0215 12.0001 17.8815 12.0001C15.7415 12.0001 14 13.6153 14 15.6001C14 17.1625 15.0855 18.4825 16.5877 18.9793V29.0221C15.0855 29.5177 14 30.8377 14 32.4001C14 34.3849 15.7415 36.0001 17.8815 36.0001C20.0215 36.0001 21.763 34.3849 21.763 32.4001C21.763 30.8377 20.6774 29.5177 19.1753 29.0209V27.1249C19.1753 25.4017 20.6865 24.0001 22.5457 24.0001H24.8617C27.9009 24.0001 30.3876 21.8713 30.7473 19.1413C32.5884 18.8605 34 17.3857 34 15.6001Z" fill="#1A56DB"/>
</g>
<defs>
<clipPath id="clip0_1_25111">
<rect width="24" height="24" fill="white" transform="translate(12 12.0001)"/>
</clipPath>
</defs>
</svg>
