<svg width="48" height="48" viewBox="0 0 48 48" fill="none" xmlns="http://www.w3.org/2000/svg">
<path d="M0 8.00012C0 3.58185 3.58172 0.00012207 8 0.00012207H40C44.4183 0.00012207 48 3.58184 48 8.00012V40.0001C48 44.4184 44.4183 48.0001 40 48.0001H8C3.58172 48.0001 0 44.4184 0 40.0001V8.00012Z" fill="#E1EFFE"/>
<g clip-path="url(#clip0_1_25121)">
<path d="M34.6667 26.6668H31.0373L22.6667 35.0375C22.3014 35.3994 21.8992 35.7221 21.4667 36.0001H34.6667C35.0203 36.0001 35.3594 35.8596 35.6095 35.6096C35.8595 35.3596 36 35.0204 36 34.6668V28.0001C36 27.6465 35.8595 27.3074 35.6095 27.0573C35.3594 26.8073 35.0203 26.6668 34.6667 26.6668Z" fill="#1A56DB"/>
<path d="M20 12.0001H13.3333C12.9797 12.0001 12.6406 12.1406 12.3905 12.3906C12.1405 12.6407 12 12.9798 12 13.3335V31.3335C12 32.5711 12.4917 33.7581 13.3668 34.6333C14.242 35.5085 15.429 36.0001 16.6667 36.0001C17.9043 36.0001 19.0913 35.5085 19.9665 34.6333C20.8417 33.7581 21.3333 32.5711 21.3333 31.3335V13.3335C21.3333 12.9798 21.1929 12.6407 20.9428 12.3906C20.6928 12.1406 20.3536 12.0001 20 12.0001ZM16.6667 32.6668C16.403 32.6668 16.1452 32.5886 15.9259 32.4421C15.7066 32.2956 15.5357 32.0873 15.4348 31.8437C15.3339 31.6001 15.3075 31.332 15.359 31.0733C15.4104 30.8147 15.5374 30.5771 15.7239 30.3906C15.9103 30.2042 16.1479 30.0772 16.4065 30.0257C16.6652 29.9743 16.9333 30.0007 17.1769 30.1016C17.4205 30.2025 17.6288 30.3734 17.7753 30.5927C17.9218 30.812 18 31.0697 18 31.3335C18 31.6871 17.8595 32.0262 17.6095 32.2763C17.3594 32.5263 17.0203 32.6668 16.6667 32.6668Z" fill="#1A56DB"/>
<path d="M33.5093 18.5335L28.8 13.8241C28.55 13.5742 28.2109 13.4337 27.8573 13.4337C27.5038 13.4337 27.1647 13.5742 26.9147 13.8241L24 16.7335V29.9335L33.5093 20.4241C33.6339 20.3002 33.7328 20.1529 33.8002 19.9907C33.8677 19.8285 33.9024 19.6545 33.9024 19.4788C33.9024 19.3031 33.8677 19.1291 33.8002 18.9669C33.7328 18.8047 33.6339 18.6574 33.5093 18.5335Z" fill="#1A56DB"/>
</g>
<defs>
<clipPath id="clip0_1_25121">
<rect width="24" height="24" fill="white" transform="translate(12 12.0001)"/>
</clipPath>
</defs>
</svg>
