<svg width="48" height="48" viewBox="0 0 48 48" fill="none" xmlns="http://www.w3.org/2000/svg">
<path d="M0 8.00012C0 3.58185 3.58172 0.00012207 8 0.00012207H40C44.4183 0.00012207 48 3.58184 48 8.00012V40.0001C48 44.4184 44.4183 48.0001 40 48.0001H8C3.58172 48.0001 0 44.4184 0 40.0001V8.00012Z" fill="#E1EFFE"/>
<g clip-path="url(#clip0_1_25116)">
<path d="M34.9526 21.4727L33.8826 20.4013C33.6562 20.1761 33.5323 19.8758 33.5323 19.5576V18.0417C33.5323 16.0705 31.9285 14.4664 29.9577 14.4664H28.4421C28.1287 14.4664 27.8213 14.3389 27.5996 14.1173L26.5284 13.0459C25.1343 11.6515 22.868 11.6515 21.4739 13.0459L20.4004 14.1173C20.1787 14.3389 19.8713 14.4664 19.5579 14.4664H18.0423C16.0715 14.4664 14.4677 16.0705 14.4677 18.0417V19.5576C14.4677 19.8758 14.3438 20.1761 14.1186 20.4013L13.0474 21.4715C12.3718 22.1473 12 23.0458 12 24.0004C12 24.955 12.373 25.8536 13.0474 26.5281L14.1174 27.5995C14.3438 27.8247 14.4677 28.1251 14.4677 28.4433V29.9592C14.4677 31.9303 16.0715 33.5344 18.0423 33.5344H19.5579C19.8713 33.5344 20.1787 33.6619 20.4004 33.8836L21.4716 34.9562C22.1686 35.6521 23.0837 36.0001 23.9988 36.0001C24.9139 36.0001 25.829 35.6521 26.5261 34.955L27.5973 33.8836C27.8213 33.6619 28.1287 33.5344 28.4421 33.5344H29.9577C31.9285 33.5344 33.5323 31.9303 33.5323 29.9592V28.4433C33.5323 28.1251 33.6562 27.8247 33.8826 27.5995L34.9526 26.5293C35.627 25.8536 36 24.9562 36 24.0004C36 23.0446 35.6282 22.1473 34.9526 21.4727ZM29.4275 22.6085L22.2782 27.3754C22.0769 27.5101 21.8457 27.5757 21.6169 27.5757C21.3095 27.5757 21.0045 27.4565 20.7745 27.2265L18.3914 24.843C17.9255 24.377 17.9255 23.6238 18.3914 23.1579C18.8573 22.6919 19.6104 22.6919 20.0763 23.1579L21.7682 24.8501L28.1049 20.6254C28.6542 20.2595 29.3929 20.4073 29.7575 20.9555C30.1233 21.5037 29.9756 22.2438 29.4275 22.6085Z" fill="#1A56DB"/>
</g>
<defs>
<clipPath id="clip0_1_25116">
<rect width="24" height="24" fill="white" transform="translate(12 12.0001)"/>
</clipPath>
</defs>
</svg>
