<svg width="48" height="48" viewBox="0 0 48 48" fill="none" xmlns="http://www.w3.org/2000/svg">
<path d="M0 8.00012C0 3.58185 3.58172 0.00012207 8 0.00012207H40C44.4183 0.00012207 48 3.58184 48 8.00012V40.0001C48 44.4184 44.4183 48.0001 40 48.0001H8C3.58172 48.0001 0 44.4184 0 40.0001V8.00012Z" fill="#E1EFFE"/>
<path d="M33.6 13.0001H14.4C13.0764 13.0001 12 14.0965 12 15.4446V32.5557C12 33.9038 13.0764 35.0001 14.4 35.0001H33.6C34.9236 35.0001 36 33.9038 36 32.5557V15.4446C36 14.0965 34.9236 13.0001 33.6 13.0001ZM24.6 16.6668C25.2624 16.6668 25.8 17.2143 25.8 17.889C25.8 18.5637 25.2624 19.1112 24.6 19.1112C23.9376 19.1112 23.4 18.5637 23.4 17.889C23.4 17.2143 23.9376 16.6668 24.6 16.6668ZM21 16.6668C21.6624 16.6668 22.2 17.2143 22.2 17.889C22.2 18.5637 21.6624 19.1112 21 19.1112C20.3376 19.1112 19.8 18.5637 19.8 17.889C19.8 17.2143 20.3376 16.6668 21 16.6668ZM17.4 16.6668C18.0624 16.6668 18.6 17.2143 18.6 17.889C18.6 18.5637 18.0624 19.1112 17.4 19.1112C16.7376 19.1112 16.2 18.5637 16.2 17.889C16.2 17.2143 16.7376 16.6668 17.4 16.6668ZM14.4 32.5557V22.7779H33.6012L33.6024 32.5557H14.4Z" fill="#1A56DB"/>
</svg>
