<svg width="15" height="14" viewBox="0 0 15 14" fill="none" xmlns="http://www.w3.org/2000/svg">
<g clip-path="url(#clip0_20_431)">
<path d="M5.67547 12.8334C5.44698 12.8345 5.22721 12.7272 5.06316 12.5344L0.930895 7.67379C0.848532 7.57632 0.782813 7.46014 0.737491 7.33188C0.692169 7.20362 0.668131 7.0658 0.66675 6.92628C0.663961 6.6445 0.753628 6.37293 0.916024 6.17129C1.07842 5.96966 1.30024 5.85448 1.5327 5.8511C1.76515 5.84772 1.98919 5.95641 2.15553 6.15327L5.67897 10.296L13.1772 1.46869C13.3438 1.27183 13.5681 1.16325 13.8007 1.16683C14.0333 1.17041 14.2552 1.28586 14.4176 1.48777C14.58 1.68969 14.6696 1.96154 14.6666 2.24351C14.6637 2.52548 14.5684 2.79448 14.4019 2.99134L6.28779 12.5344C6.12373 12.7272 5.90396 12.8345 5.67547 12.8334Z" fill="#0E9F6E"/>
</g>
<defs>
<clipPath id="clip0_20_431">
<rect width="14" height="14" fill="white" transform="translate(0.666687)"/>
</clipPath>
</defs>
</svg>
