<svg width="32" height="33" viewBox="0 0 32 33" fill="none" xmlns="http://www.w3.org/2000/svg">
<path d="M24.5195 13.4427C24.4454 13.9531 24.1088 14.6466 23.7227 15.2495C23.2355 16.0103 22.4624 16.5431 21.5775 16.7282L17.6798 17.5432C17.0534 17.6742 16.4853 18.0021 16.0588 18.4788L13.5032 21.3355C13.0228 21.8724 12.6872 21.7443 12.6872 21.0243C12.6813 21.051 11.4188 24.307 14.7647 26.2369C16.0504 26.9785 17.901 26.712 19.1866 25.9705L25.9985 22.0414C28.546 20.572 30.3446 18.0862 30.9425 15.2087C30.9661 15.0949 30.9844 14.9806 31.0041 14.8665L24.5195 13.4427Z" fill="url(#paint0_linear_20_231)"/>
<path d="M22.7529 9.51792C24.0385 10.2595 24.5638 11.3635 24.5638 12.8466C24.5638 13.0479 24.548 13.2468 24.5195 13.4427L27.2642 14.6217L31.0041 14.8665C31.483 12.095 30.5445 9.2422 28.8621 6.97463C27.596 5.26819 25.9668 3.78732 24.0082 2.65756C22.4171 1.73984 20.7638 1.13519 19.1026 0.803406L17.2362 3.22041L16.6466 5.99577L22.7529 9.51792Z" fill="url(#paint1_linear_20_231)"/>
<path d="M0.783589 11.5518C0.782891 11.554 0.784825 11.5546 0.785552 11.5524C0.929575 11.1205 1.11017 10.6385 1.33563 10.1237C2.51334 7.4343 4.78285 5.64062 7.57491 4.72608C10.367 3.81155 13.4155 4.13212 15.9601 5.59987L16.6465 5.99577L19.1025 0.80341C11.2909 -0.756766 3.30727 3.83253 0.793521 11.5217C0.79232 11.5254 0.78795 11.5382 0.783589 11.5518Z" fill="url(#paint2_linear_20_231)"/>
<path d="M18.9198 25.9705C17.6342 26.712 16.0503 26.712 14.7647 25.9705C14.5902 25.8698 14.4256 25.7566 14.27 25.6341L12.009 27.1886L10.0602 30.3377C12.2233 32.1377 15.0321 32.7164 17.8389 32.3946C19.9512 32.1524 22.0495 31.4832 24.0081 30.3535C25.5992 29.4358 26.95 28.3076 28.0682 27.0362L26.9062 24.2129L25.0262 22.4483L18.9198 25.9705Z" fill="url(#paint3_linear_20_231)"/>
<path d="M14.2701 25.6341C13.2795 24.8539 12.6871 23.6572 12.6871 22.3754V22.2476V11.5724C12.6871 10.9687 12.865 10.8661 13.3883 11.1679C12.5823 10.703 10.7202 9.10697 8.42112 10.4331C7.13552 11.1747 6.07685 12.8115 6.07685 14.2946V22.1528C6.07685 25.0917 7.59901 28.1572 9.79442 30.1132C9.88127 30.1906 9.97117 30.2635 10.0603 30.3377L14.2701 25.6341Z" fill="url(#paint4_linear_20_231)"/>
<path d="M27.9104 5.81237C27.9089 5.81068 27.9074 5.81204 27.9089 5.81375C28.2113 6.15436 28.5388 6.55157 28.8724 7.00406C30.6148 9.36772 31.2658 12.3614 30.6626 15.2343C30.0593 18.1073 28.2572 20.5846 25.7125 22.0524L25.0261 22.4483L28.0682 27.0362C33.3264 21.0577 33.34 11.8555 27.9315 5.83602C27.929 5.83314 27.92 5.82294 27.9104 5.81237Z" fill="url(#paint5_linear_20_231)"/>
<path d="M6.34355 14.2947C6.34354 12.8116 7.13551 11.4411 8.42113 10.6996C8.59564 10.5989 8.77601 10.5132 8.96002 10.4398L8.74304 7.70633L7.21861 4.57891C4.57671 5.55035 2.4397 7.55796 1.31528 10.1474C0.469097 12.096 9.792e-06 14.2461 0 16.5055C0 18.341 0.302549 20.0738 0.845532 21.677L3.87391 22.0833L6.34355 21.339V14.2947Z" fill="url(#paint6_linear_20_231)"/>
<path d="M8.96004 10.4398C10.1316 9.97294 11.4652 10.0587 12.5763 10.6996L12.6871 10.7635L21.5825 15.8944C22.2065 16.2543 22.1498 16.6085 21.4445 16.756L21.9577 16.6487C22.6329 16.5075 23.2498 16.1624 23.7216 15.6595C24.5327 14.7949 24.8305 13.7518 24.8305 12.8466C24.8304 11.3635 24.0385 9.99304 22.7529 9.2515L15.941 5.32239C13.3935 3.85297 10.3394 3.53964 7.54611 4.46113C7.43561 4.49757 7.32744 4.5389 7.21864 4.57891L8.96004 10.4398Z" fill="url(#paint7_linear_20_231)"/>
<path d="M19.3222 32.1524C19.3244 32.1519 19.324 32.1499 19.3218 32.1504C18.8753 32.2418 18.3673 32.3265 17.8082 32.3888C14.8881 32.7146 11.9675 31.781 9.77873 29.8226C7.58996 27.8642 6.34356 25.0663 6.34357 22.1308L6.34356 21.339L0.845551 21.677C3.3989 29.2157 11.3689 33.8286 19.2912 32.1589C19.2949 32.1581 19.3083 32.1554 19.3222 32.1524Z" fill="url(#paint8_linear_20_231)"/>
<defs>
<linearGradient id="paint0_linear_20_231" x1="20.0601" y1="24.2699" x2="23.2076" y2="13.3068" gradientUnits="userSpaceOnUse">
<stop stop-color="#1724C9"/>
<stop offset="1" stop-color="#1C64F2"/>
</linearGradient>
<linearGradient id="paint1_linear_20_231" x1="27.3094" y1="10.9003" x2="19.0298" y2="2.6498" gradientUnits="userSpaceOnUse">
<stop stop-color="#1C64F2"/>
<stop offset="1" stop-color="#0092FF"/>
</linearGradient>
<linearGradient id="paint2_linear_20_231" x1="16.1645" y1="5.52115" x2="3.67431" y2="6.3104" gradientUnits="userSpaceOnUse">
<stop stop-color="#0092FF"/>
<stop offset="1" stop-color="#45B2FF"/>
</linearGradient>
<linearGradient id="paint3_linear_20_231" x1="15.3197" y1="29.1627" x2="26.5366" y2="26.1359" gradientUnits="userSpaceOnUse">
<stop stop-color="#1C64F2"/>
<stop offset="1" stop-color="#0092FF"/>
</linearGradient>
<linearGradient id="paint4_linear_20_231" x1="7.26876" y1="16.1827" x2="15.2324" y2="24.4347" gradientUnits="userSpaceOnUse">
<stop stop-color="#1724C9"/>
<stop offset="1" stop-color="#1C64F2"/>
</linearGradient>
<linearGradient id="paint5_linear_20_231" x1="25.4504" y1="22.1357" x2="31.0069" y2="10.9345" gradientUnits="userSpaceOnUse">
<stop stop-color="#0092FF"/>
<stop offset="1" stop-color="#45B2FF"/>
</linearGradient>
<linearGradient id="paint6_linear_20_231" x1="5.36387" y1="9.63097" x2="2.39054" y2="20.8066" gradientUnits="userSpaceOnUse">
<stop stop-color="#1C64F2"/>
<stop offset="1" stop-color="#0092FF"/>
</linearGradient>
<linearGradient id="paint7_linear_20_231" x1="20.5431" y1="9.09942" x2="9.67768" y2="11.8047" gradientUnits="userSpaceOnUse">
<stop stop-color="#1724C9"/>
<stop offset="1" stop-color="#1C64F2"/>
</linearGradient>
<linearGradient id="paint8_linear_20_231" x1="6.40676" y1="21.8567" x2="13.3325" y2="32.2746" gradientUnits="userSpaceOnUse">
<stop stop-color="#0092FF"/>
<stop offset="1" stop-color="#45B2FF"/>
</linearGradient>
</defs>
</svg>
