<svg width="20" height="18" viewBox="0 0 20 18" fill="none" xmlns="http://www.w3.org/2000/svg">
<path d="M13.3333 17.3333H17.7778C19.0033 17.3333 20 16.2654 20 14.9523V10.1904C20 8.8773 19.0033 7.80944 17.7778 7.80944H13.3333V6.61897C13.3333 4.64992 14.8289 3.04754 16.6667 3.04754H17.7778C18.3911 3.04754 18.8889 2.5154 18.8889 1.85706C18.8889 1.19873 18.3911 0.666586 17.7778 0.666586H16.6667C13.6033 0.666586 11.1111 3.33682 11.1111 6.61897L11.1111 14.9523C11.1111 16.2654 12.1078 17.3333 13.3333 17.3333Z" fill="#9CA3AF"/>
<path d="M2.22222 17.3333L6.66667 17.3333C7.89222 17.3333 8.88889 16.2654 8.88889 14.9523V10.1904C8.88889 8.8773 7.89222 7.80944 6.66667 7.80944H2.22222V6.61897C2.22222 4.64992 3.71778 3.04754 5.55556 3.04754H6.66667C7.28 3.04754 7.77778 2.5154 7.77778 1.85706C7.77778 1.19873 7.28 0.666586 6.66667 0.666586H5.55556C2.49222 0.666586 0 3.33682 0 6.61897V14.9523C0 16.2654 0.996666 17.3333 2.22222 17.3333Z" fill="#9CA3AF"/>
</svg>
