<svg width="14" height="14" viewBox="0 0 14 14" fill="none" xmlns="http://www.w3.org/2000/svg">
<path d="M8.27038 6.99995L13.0257 2.2446C13.1115 2.16172 13.18 2.06259 13.2271 1.95297C13.2742 1.84336 13.2989 1.72547 13.3 1.60618C13.301 1.48689 13.2783 1.36858 13.2331 1.25817C13.1879 1.14776 13.1212 1.04745 13.0369 0.963093C12.9525 0.878738 12.8522 0.812027 12.7418 0.766853C12.6314 0.72168 12.5131 0.698948 12.3938 0.699985C12.2745 0.701022 12.1566 0.725806 12.047 0.772891C11.9374 0.819977 11.8382 0.888421 11.7554 0.974229L7.00001 5.72958L2.24466 0.974229C2.07522 0.810574 1.84827 0.720018 1.61271 0.722065C1.37714 0.724112 1.15181 0.818598 0.985234 0.985173C0.818659 1.15175 0.724173 1.37708 0.722126 1.61265C0.720079 1.84821 0.810635 2.07515 0.97429 2.2446L5.72964 6.99995L0.97429 11.7553C0.888482 11.8382 0.820038 11.9373 0.772952 12.0469C0.725867 12.1565 0.701083 12.2744 0.700046 12.3937C0.69901 12.513 0.721741 12.6313 0.766914 12.7417C0.812088 12.8521 0.878799 12.9525 0.963154 13.0368C1.04751 13.1212 1.14782 13.1879 1.25823 13.233C1.36865 13.2782 1.48695 13.301 1.60624 13.2999C1.72553 13.2989 1.84342 13.2741 1.95304 13.227C2.06265 13.1799 2.16178 13.1115 2.24466 13.0257L7.00001 8.27032L11.7554 13.0257C11.9248 13.1893 12.1518 13.2799 12.3873 13.2778C12.6229 13.2758 12.8482 13.1813 13.0148 13.0147C13.1814 12.8482 13.2759 12.6228 13.2779 12.3873C13.2799 12.1517 13.1894 11.9247 13.0257 11.7553L8.27038 6.99995Z" fill="#F05252"/>
</svg>
