<svg width="21" height="20" viewBox="0 0 21 20" fill="none" xmlns="http://www.w3.org/2000/svg">
<g clip-path="url(#clip0_20_848)">
<path d="M12.0538 12.8741L12.0647 12.8658L12.0752 12.8568L20 6.07045V15.5C20 15.8978 19.842 16.2794 19.5607 16.5607C19.2794 16.842 18.8978 17 18.5 17H2.5C2.10218 17 1.72064 16.842 1.43934 16.5607C1.15804 16.2794 1 15.8978 1 15.5V6.07017L8.97385 12.8958L8.98591 12.9062L8.99859 12.9157C9.42683 13.2376 9.94831 13.4111 10.484 13.41L10.4858 13.41C11.0529 13.4068 11.6034 13.2187 12.0538 12.8741ZM18.9047 3.05897L10.5 10.2557L2.09531 3.05897C2.22631 3.02089 2.36287 3.00077 2.5013 3H18.4987C18.6371 3.00077 18.7737 3.02089 18.9047 3.05897Z" fill="#6B7280" stroke="#6B7280"/>
</g>
<defs>
<clipPath id="clip0_20_848">
<rect width="20" height="20" fill="white" transform="translate(0.5)"/>
</clipPath>
</defs>
</svg>
