<svg width="21" height="20" viewBox="0 0 21 20" fill="none" xmlns="http://www.w3.org/2000/svg">
<g clip-path="url(#clip0_20_1051)">
<path d="M7.5418 5.00013V0.130127C7.03388 0.265929 6.57036 0.523699 6.19496 0.879127L3.24922 3.70713C2.87899 4.06752 2.61049 4.51251 2.46903 5.00013H7.5418Z" fill="#1A56DB"/>
<path d="M16.9853 0.00012207H9.62507V5.00012C9.62507 5.53056 9.40558 6.03926 9.01489 6.41434C8.6242 6.78941 8.09432 7.00012 7.5418 7.00012H2.33362V18.0001C2.32526 18.5216 2.53263 19.025 2.91026 19.3999C3.2879 19.7748 3.80498 19.9907 4.34814 20.0001H16.9853C17.5284 19.9907 18.0455 19.7748 18.4232 19.3999C18.8008 19.025 19.0082 18.5216 18.9998 18.0001V2.00012C19.0082 1.47865 18.8008 0.975274 18.4232 0.60036C18.0455 0.225446 17.5284 0.00959084 16.9853 0.00012207ZM8.58343 16.0001C8.58343 16.2653 8.47369 16.5197 8.27835 16.7072C8.083 16.8948 7.81806 17.0001 7.5418 17.0001C7.26554 17.0001 7.00059 16.8948 6.80525 16.7072C6.60991 16.5197 6.50016 16.2653 6.50016 16.0001V14.0001C6.50016 13.7349 6.60991 13.4806 6.80525 13.293C7.00059 13.1055 7.26554 13.0001 7.5418 13.0001C7.81806 13.0001 8.083 13.1055 8.27835 13.293C8.47369 13.4806 8.58343 13.7349 8.58343 14.0001V16.0001ZM11.7083 16.0001C11.7083 16.2653 11.5986 16.5197 11.4033 16.7072C11.2079 16.8948 10.943 17.0001 10.6667 17.0001C10.3904 17.0001 10.1255 16.8948 9.93016 16.7072C9.73481 16.5197 9.62507 16.2653 9.62507 16.0001V10.0001C9.62507 9.73491 9.73481 9.48055 9.93016 9.29302C10.1255 9.10548 10.3904 9.00012 10.6667 9.00012C10.943 9.00012 11.2079 9.10548 11.4033 9.29302C11.5986 9.48055 11.7083 9.73491 11.7083 10.0001V16.0001ZM14.8333 16.0001C14.8333 16.2653 14.7235 16.5197 14.5282 16.7072C14.3328 16.8948 14.0679 17.0001 13.7916 17.0001C13.5154 17.0001 13.2504 16.8948 13.0551 16.7072C12.8597 16.5197 12.75 16.2653 12.75 16.0001V12.0001C12.75 11.7349 12.8597 11.4806 13.0551 11.293C13.2504 11.1055 13.5154 11.0001 13.7916 11.0001C14.0679 11.0001 14.3328 11.1055 14.5282 11.293C14.7235 11.4806 14.8333 11.7349 14.8333 12.0001V16.0001Z" fill="#1A56DB"/>
</g>
<defs>
<clipPath id="clip0_20_1051">
<rect width="20" height="20" fill="white" transform="translate(0.666687 0.00012207)"/>
</clipPath>
</defs>
</svg>
