<svg width="64" height="64" viewBox="0 0 64 64" fill="none" xmlns="http://www.w3.org/2000/svg">
<path d="M0 8.00012C0 3.58184 3.58172 0.00012207 8 0.00012207H56C60.4183 0.00012207 64 3.58184 64 8.00012V56.0001C64 60.4184 60.4183 64.0001 56 64.0001H8C3.58172 64.0001 0 60.4184 0 56.0001V8.00012Z" fill="#D5F5F6"/>
<g clip-path="url(#clip0_20_124)">
<path d="M25.1318 31.6995C25.1318 29.4477 26.5325 27.4335 28.6462 26.6433L37.4711 23.3439C38.083 23.1153 38.7274 23.0001 39.3718 23.0001C40.0162 23.0001 40.6607 23.1153 41.2726 23.3439L42.8809 23.9451V17.6001C42.8809 15.6147 41.3159 14.0001 39.3917 14.0001H26.6354V23.0001C26.6354 24.9855 25.0162 26.6001 23.0253 26.6001H14V46.4001C14 48.3855 15.565 50.0001 17.4892 50.0001H33.0848C29.7329 46.7619 25.1318 40.6941 25.1318 31.6995Z" fill="#0694A2"/>
<path d="M23.0253 23.0001V14.2341C22.1552 14.4825 21.3484 14.9253 20.6913 15.5823L15.5866 20.6727C14.9278 21.3279 14.4838 22.1325 14.2347 23.0001H23.0253Z" fill="#0694A2"/>
<path d="M48.8285 30.0147L40.0036 26.7153C39.5939 26.5623 39.1444 26.5623 38.7365 26.7153L29.9116 30.0147C29.2076 30.2775 28.7401 30.9507 28.7401 31.7013C28.7401 43.5615 38.0181 49.4817 38.4134 49.7283C38.7076 49.9083 39.0397 50.0001 39.3718 50.0001C39.704 50.0001 40.0361 49.9083 40.3285 49.7265C40.7238 49.4799 50 43.5615 50 31.6995C50 30.9507 49.5343 30.2775 48.8285 30.0147ZM39.3773 45.9735L39.3718 45.9681V30.3207L46.3502 32.9307C45.8755 40.0425 41.3953 44.3697 39.3773 45.9735Z" fill="#0694A2"/>
</g>
<defs>
<clipPath id="clip0_20_124">
<rect width="36" height="36" fill="white" transform="translate(14 14.0001)"/>
</clipPath>
</defs>
</svg>
