<svg width="64" height="64" viewBox="0 0 64 64" fill="none" xmlns="http://www.w3.org/2000/svg">
<path d="M0 8.00012C0 3.58184 3.58172 0.00012207 8 0.00012207H56C60.4183 0.00012207 64 3.58184 64 8.00012V56.0001C64 60.4184 60.4183 64.0001 56 64.0001H8C3.58172 64.0001 0 60.4184 0 56.0001V8.00012Z" fill="#EDEBFE"/>
<g clip-path="url(#clip0_20_87)">
<path d="M32.0135 35.6046C34.0029 35.6046 35.6155 33.9925 35.6155 32.0039C35.6155 30.0153 34.0029 28.4032 32.0135 28.4032C30.0242 28.4032 28.4116 30.0153 28.4116 32.0039C28.4116 33.9925 30.0242 35.6046 32.0135 35.6046Z" fill="#7E3AF2"/>
<path d="M46.155 32.0039C50.4393 25.1588 51.2241 19.0551 48.0955 15.9258C44.8788 12.7084 38.6577 13.6459 32.0135 17.8188C25.3694 13.6477 19.1501 12.712 15.9315 15.9258C12.7094 19.1468 13.6544 25.3801 17.845 32.0345C16.1908 34.685 14.9955 37.3014 14.4213 39.6551C13.3016 44.2509 14.6247 46.7737 15.9315 48.0801C17.2204 49.3685 19.0079 50.0001 21.1446 50.0001C24.2048 50.0001 27.9795 48.6883 32.0135 46.1619C36.0457 48.6829 39.8259 49.9929 42.8861 49.9929C45.0228 49.9929 46.8121 49.3631 48.0955 48.0801C51.2259 44.9527 50.4411 38.849 46.155 32.0039ZM18.4787 45.5357C17.2312 44.2869 17.5948 41.8522 17.9206 40.508C18.3131 38.8975 19.0673 37.1107 20.1059 35.2555C21.3012 36.7976 22.6459 38.3415 24.1598 39.8549C24.5108 40.2057 24.9716 40.3821 25.4324 40.3821C25.8932 40.3821 26.3541 40.2057 26.7051 39.8549C27.4089 39.1513 27.4089 38.0122 26.7051 37.3086C22.9231 33.528 20.0339 29.3497 18.5687 25.5403C17.323 22.3013 17.2888 19.6597 18.4787 18.4702C20.0609 16.8903 24.0643 17.5003 28.7482 20.1059C27.2073 21.3026 25.6682 22.6414 24.158 24.1511C23.4541 24.8547 23.4541 25.9937 24.158 26.6973C24.8618 27.4009 26.0012 27.4009 26.7051 26.6973C28.4584 24.9446 30.2531 23.4493 32.0135 22.1915C33.774 23.4475 35.5687 24.9446 37.322 26.6973C38.0258 27.4009 39.1653 27.4009 39.8691 26.6973C40.573 25.9937 40.573 24.8547 39.8691 24.1511C38.3589 22.6414 36.818 21.3008 35.2789 20.1077C39.9627 17.5003 43.9679 16.8903 45.5502 18.472C47.4511 20.3741 46.218 25.5277 42.5513 31.0034C42.5495 31.007 42.5441 31.0124 42.5441 31.0124L42.5405 31.0178C41.8834 31.9949 41.1526 32.981 40.3642 33.9491C39.4263 35.1007 38.4039 36.2326 37.3238 37.3104C36.3968 38.2353 35.4337 39.1189 34.4617 39.9376C33.3456 40.8751 32.2079 41.7335 31.0793 42.491C25.571 46.1961 20.3922 47.4449 18.4787 45.5357ZM45.5502 45.5357C43.9175 47.1696 39.8493 46.475 35.2537 43.9072C35.7631 43.5149 36.2744 43.1154 36.7766 42.6944C37.8278 41.8108 38.8683 40.8553 39.8691 39.8567C41.0338 38.6924 42.1408 37.4706 43.1561 36.2236C43.4189 35.8997 43.6655 35.5722 43.9175 35.2447C46.4881 39.8387 47.1883 43.8964 45.5502 45.5357Z" fill="#7E3AF2"/>
</g>
<defs>
<clipPath id="clip0_20_87">
<rect width="36" height="36" fill="white" transform="translate(14 14.0001)"/>
</clipPath>
</defs>
</svg>
