<svg width="64" height="64" viewBox="0 0 64 64" fill="none" xmlns="http://www.w3.org/2000/svg">
<path d="M0 8.00012C0 3.58184 3.58172 0.00012207 8 0.00012207H56C60.4183 0.00012207 64 3.58184 64 8.00012V56.0001C64 60.4184 60.4183 64.0001 56 64.0001H8C3.58172 64.0001 0 60.4184 0 56.0001V8.00012Z" fill="#E1EFFE"/>
<g clip-path="url(#clip0_20_50)">
<path d="M42.4211 32.9475H31.0526V21.5791C31.0526 21.0766 30.853 20.5946 30.4977 20.2393C30.1423 19.884 29.6604 19.6843 29.1579 19.6843C26.16 19.6843 23.2293 20.5733 20.7366 22.2389C18.2439 23.9045 16.3011 26.2718 15.1538 29.0415C14.0066 31.8113 13.7064 34.859 14.2913 37.7994C14.8761 40.7397 16.3198 43.4406 18.4397 45.5605C20.5595 47.6803 23.2604 49.124 26.2007 49.7089C29.1411 50.2937 32.1888 49.9936 34.9586 48.8463C37.7283 47.699 40.0957 45.7562 41.7612 43.2635C43.4268 40.7708 44.3158 37.8402 44.3158 34.8422C44.3158 34.3397 44.1162 33.8578 43.7608 33.5024C43.4055 33.1471 42.9236 32.9475 42.4211 32.9475Z" fill="#1A56DB"/>
<path d="M34.8421 14.0001C34.3396 14.0001 33.8577 14.1997 33.5023 14.5551C33.147 14.9104 32.9474 15.3923 32.9474 15.8949V29.158C32.9474 29.6605 33.147 30.1425 33.5023 30.4978C33.8577 30.8531 34.3396 31.0527 34.8421 31.0527H48.1053C48.6078 31.0527 49.0897 30.8531 49.445 30.4978C49.8004 30.1425 50 29.6605 50 29.158C49.9955 25.1393 48.397 21.2864 45.5554 18.4448C42.7137 15.6031 38.8608 14.0046 34.8421 14.0001Z" fill="#1A56DB"/>
</g>
<defs>
<clipPath id="clip0_20_50">
<rect width="36" height="36" fill="white" transform="translate(14 14.0001)"/>
</clipPath>
</defs>
</svg>
