<svg width="21" height="20" viewBox="0 0 21 20" fill="none" xmlns="http://www.w3.org/2000/svg">
<g clip-path="url(#clip0_20_1045)">
<path d="M17.2084 7.00012H15.4896V4.50012C15.4896 3.30665 14.9464 2.16206 13.9794 1.31814C13.0124 0.474228 11.7009 0.00012207 10.3334 0.00012207C8.96583 0.00012207 7.65432 0.474228 6.68734 1.31814C5.72035 2.16206 5.1771 3.30665 5.1771 4.50012V7.00012H3.45835C2.85057 7.00012 2.26767 7.21084 1.8379 7.58591C1.40813 7.96098 1.16669 8.46969 1.16669 9.00012V18.0001C1.16669 18.5306 1.40813 19.0393 1.8379 19.4143C2.26767 19.7894 2.85057 20.0001 3.45835 20.0001H17.2084C17.8161 20.0001 18.399 19.7894 18.8288 19.4143C19.2586 19.0393 19.5 18.5306 19.5 18.0001V9.00012C19.5 8.46969 19.2586 7.96098 18.8288 7.58591C18.399 7.21084 17.8161 7.00012 17.2084 7.00012ZM11.4792 15.0001C11.4792 15.2653 11.3585 15.5197 11.1436 15.7072C10.9287 15.8948 10.6372 16.0001 10.3334 16.0001C10.0295 16.0001 9.73801 15.8948 9.52313 15.7072C9.30824 15.5197 9.18752 15.2653 9.18752 15.0001V12.0001C9.18752 11.7349 9.30824 11.4806 9.52313 11.293C9.73801 11.1055 10.0295 11.0001 10.3334 11.0001C10.6372 11.0001 10.9287 11.1055 11.1436 11.293C11.3585 11.4806 11.4792 11.7349 11.4792 12.0001V15.0001ZM13.1979 7.00012H7.46877V4.50012C7.46877 3.83708 7.77057 3.2012 8.30779 2.73236C8.845 2.26351 9.57362 2.00012 10.3334 2.00012C11.0931 2.00012 11.8217 2.26351 12.3589 2.73236C12.8961 3.2012 13.1979 3.83708 13.1979 4.50012V7.00012Z" fill="#1A56DB"/>
</g>
<defs>
<clipPath id="clip0_20_1045">
<rect width="20" height="20" fill="white" transform="translate(0.333374 0.00012207)"/>
</clipPath>
</defs>
</svg>
