<svg width="147" height="37" viewBox="0 0 147 37" fill="none" xmlns="http://www.w3.org/2000/svg">
<path d="M24.5195 15.4427C24.4454 15.9531 24.1088 16.6466 23.7227 17.2495C23.2355 18.0103 22.4624 18.5431 21.5775 18.7282L17.6798 19.5432C17.0534 19.6742 16.4853 20.0021 16.0588 20.4788L13.5032 23.3355C13.0228 23.8724 12.6872 23.7443 12.6872 23.0243C12.6813 23.051 11.4188 26.307 14.7647 28.2369C16.0504 28.9785 17.901 28.712 19.1866 27.9705L25.9985 24.0414C28.546 22.572 30.3446 20.0862 30.9425 17.2087C30.9661 17.0949 30.9844 16.9806 31.0041 16.8665L24.5195 15.4427Z" fill="url(#paint0_linear_20_230)"/>
<path d="M22.7529 11.5179C24.0385 12.2595 24.5638 13.3635 24.5638 14.8466C24.5638 15.0479 24.548 15.2468 24.5195 15.4427L27.2642 16.6217L31.0041 16.8665C31.483 14.095 30.5445 11.2422 28.8621 8.97463C27.596 7.26819 25.9668 5.78732 24.0082 4.65756C22.4171 3.73984 20.7638 3.13519 19.1026 2.80341L17.2362 5.22041L16.6466 7.99577L22.7529 11.5179Z" fill="url(#paint1_linear_20_230)"/>
<path d="M0.783589 13.5518C0.782891 13.554 0.784825 13.5546 0.785552 13.5524C0.929575 13.1205 1.11017 12.6385 1.33563 12.1237C2.51334 9.4343 4.78285 7.64062 7.57491 6.72608C10.367 5.81155 13.4155 6.13212 15.9601 7.59987L16.6465 7.99577L19.1025 2.80341C11.2909 1.24323 3.30727 5.83253 0.793521 13.5217C0.79232 13.5254 0.78795 13.5382 0.783589 13.5518Z" fill="url(#paint2_linear_20_230)"/>
<path d="M18.9198 27.9705C17.6342 28.712 16.0503 28.712 14.7647 27.9705C14.5902 27.8698 14.4256 27.7566 14.27 27.6341L12.009 29.1886L10.0602 32.3377C12.2233 34.1377 15.0321 34.7164 17.8389 34.3946C19.9512 34.1524 22.0495 33.4832 24.0081 32.3535C25.5992 31.4358 26.95 30.3076 28.0682 29.0362L26.9062 26.2129L25.0262 24.4483L18.9198 27.9705Z" fill="url(#paint3_linear_20_230)"/>
<path d="M14.2701 27.6341C13.2795 26.8539 12.6871 25.6572 12.6871 24.3754V24.2476V13.5724C12.6871 12.9687 12.865 12.8661 13.3883 13.1679C12.5823 12.703 10.7202 11.107 8.42112 12.4331C7.13552 13.1747 6.07685 14.8115 6.07685 16.2946V24.1528C6.07685 27.0917 7.59901 30.1572 9.79442 32.1132C9.88127 32.1906 9.97117 32.2635 10.0603 32.3377L14.2701 27.6341Z" fill="url(#paint4_linear_20_230)"/>
<path d="M27.9104 7.81237C27.9089 7.81068 27.9074 7.81204 27.9089 7.81375C28.2113 8.15436 28.5388 8.55157 28.8724 9.00406C30.6148 11.3677 31.2658 14.3614 30.6626 17.2343C30.0593 20.1073 28.2572 22.5846 25.7125 24.0524L25.0261 24.4483L28.0682 29.0362C33.3264 23.0577 33.34 13.8555 27.9315 7.83602C27.929 7.83314 27.92 7.82294 27.9104 7.81237Z" fill="url(#paint5_linear_20_230)"/>
<path d="M6.34355 16.2947C6.34354 14.8116 7.13551 13.4411 8.42113 12.6996C8.59564 12.5989 8.77601 12.5132 8.96002 12.4398L8.74304 9.70633L7.21861 6.57891C4.57671 7.55035 2.4397 9.55796 1.31528 12.1474C0.469097 14.096 9.792e-06 16.2461 0 18.5055C0 20.341 0.302549 22.0738 0.845532 23.677L3.87391 24.0833L6.34355 23.339V16.2947Z" fill="url(#paint6_linear_20_230)"/>
<path d="M8.96004 12.4398C10.1316 11.9729 11.4652 12.0587 12.5763 12.6996L12.6871 12.7635L21.5825 17.8944C22.2065 18.2543 22.1498 18.6085 21.4445 18.756L21.9577 18.6487C22.6329 18.5075 23.2498 18.1624 23.7216 17.6595C24.5327 16.7949 24.8305 15.7518 24.8305 14.8466C24.8304 13.3635 24.0385 11.993 22.7529 11.2515L15.941 7.32239C13.3935 5.85297 10.3394 5.53964 7.54611 6.46113C7.43561 6.49757 7.32744 6.5389 7.21864 6.57891L8.96004 12.4398Z" fill="url(#paint7_linear_20_230)"/>
<path d="M19.3222 34.1524C19.3244 34.1519 19.324 34.1499 19.3218 34.1504C18.8753 34.2418 18.3673 34.3265 17.8082 34.3888C14.8881 34.7146 11.9675 33.781 9.77873 31.8226C7.58996 29.8642 6.34356 27.0663 6.34357 24.1308L6.34356 23.339L0.845551 23.677C3.3989 31.2157 11.3689 35.8286 19.2912 34.1589C19.2949 34.1581 19.3083 34.1554 19.3222 34.1524Z" fill="url(#paint8_linear_20_230)"/>
<path d="M60.6619 15.9347H57.4744C57.3835 15.4119 57.2159 14.9489 56.9716 14.5455C56.7273 14.1364 56.4233 13.7898 56.0597 13.5057C55.696 13.2216 55.2813 13.0085 54.8153 12.8665C54.3551 12.7188 53.858 12.6449 53.3239 12.6449C52.375 12.6449 51.5341 12.8835 50.8011 13.3608C50.0682 13.8324 49.4943 14.5256 49.0795 15.4403C48.6648 16.3494 48.4574 17.4602 48.4574 18.7727C48.4574 20.108 48.6648 21.233 49.0795 22.1477C49.5 23.0568 50.0739 23.7443 50.8011 24.2102C51.5341 24.6705 52.3722 24.9006 53.3153 24.9006C53.8381 24.9006 54.3267 24.8324 54.7812 24.696C55.2415 24.554 55.6534 24.3466 56.017 24.0739C56.3864 23.8011 56.696 23.4659 56.946 23.0682C57.2017 22.6705 57.3778 22.2159 57.4744 21.7045L60.6619 21.7216C60.5426 22.5511 60.2841 23.3295 59.8864 24.0568C59.4943 24.7841 58.9801 25.4261 58.3438 25.983C57.7074 26.5341 56.9631 26.9659 56.1108 27.2784C55.2585 27.5852 54.3125 27.7386 53.2727 27.7386C51.7386 27.7386 50.3693 27.3835 49.1648 26.6733C47.9602 25.9631 47.0114 24.9375 46.3182 23.5966C45.625 22.2557 45.2784 20.6477 45.2784 18.7727C45.2784 16.892 45.6278 15.2841 46.3267 13.9489C47.0256 12.608 47.9773 11.5824 49.1818 10.8722C50.3864 10.1619 51.75 9.80682 53.2727 9.80682C54.2443 9.80682 55.1477 9.94318 55.983 10.2159C56.8182 10.4886 57.5625 10.8892 58.2159 11.4176C58.8693 11.9403 59.4063 12.5824 59.8267 13.3438C60.2528 14.0994 60.5313 14.9631 60.6619 15.9347ZM66.5064 10.0455V27.5H63.4212V10.0455H66.5064ZM69.679 27.5V14.4091H72.7642V27.5H69.679ZM71.2301 12.5511C70.7415 12.5511 70.321 12.3892 69.9688 12.0653C69.6165 11.7358 69.4403 11.3409 69.4403 10.8807C69.4403 10.4148 69.6165 10.0199 69.9688 9.69602C70.321 9.36648 70.7415 9.2017 71.2301 9.2017C71.7244 9.2017 72.1449 9.36648 72.4915 9.69602C72.8438 10.0199 73.0199 10.4148 73.0199 10.8807C73.0199 11.3409 72.8438 11.7358 72.4915 12.0653C72.1449 12.3892 71.7244 12.5511 71.2301 12.5511ZM81.647 27.7557C80.3402 27.7557 79.218 27.4688 78.2805 26.8949C77.3487 26.321 76.63 25.5284 76.1243 24.517C75.6243 23.5 75.3743 22.3295 75.3743 21.0057C75.3743 19.6761 75.63 18.5028 76.1413 17.4858C76.6527 16.4631 77.3743 15.6676 78.3061 15.0994C79.2436 14.5256 80.3516 14.2386 81.63 14.2386C82.6925 14.2386 83.6328 14.4347 84.451 14.8267C85.2749 15.2131 85.9311 15.7614 86.4197 16.4716C86.9084 17.1761 87.1868 18 87.255 18.9432H84.3061C84.1868 18.3125 83.9027 17.7869 83.4538 17.3665C83.0107 16.9403 82.4169 16.7273 81.6726 16.7273C81.0419 16.7273 80.4879 16.8977 80.0107 17.2386C79.5334 17.5739 79.1612 18.0568 78.8942 18.6875C78.6328 19.3182 78.5021 20.0739 78.5021 20.9545C78.5021 21.8466 78.6328 22.6136 78.8942 23.2557C79.1555 23.892 79.522 24.3835 79.9936 24.7301C80.4709 25.071 81.0305 25.2415 81.6726 25.2415C82.1271 25.2415 82.5334 25.1562 82.8913 24.9858C83.255 24.8097 83.5589 24.5568 83.8033 24.2273C84.0476 23.8977 84.2152 23.4972 84.3061 23.0256H87.255C87.1811 23.9517 86.9084 24.7727 86.4368 25.4886C85.9652 26.1989 85.3232 26.7557 84.5107 27.1591C83.6982 27.5568 82.7436 27.7557 81.647 27.7557ZM92.6009 23.392L92.5923 19.6676H93.0866L97.7912 14.4091H101.396L95.6094 20.8523H94.9702L92.6009 23.392ZM89.7884 27.5V10.0455H92.8736V27.5H89.7884ZM98.0043 27.5L93.7429 21.5426L95.8224 19.3693L101.695 27.5H98.0043ZM103.589 27.5V10.0455H106.674V16.5739H106.802C106.961 16.2557 107.185 15.9176 107.475 15.5597C107.765 15.196 108.157 14.8864 108.651 14.6307C109.146 14.3693 109.776 14.2386 110.543 14.2386C111.555 14.2386 112.467 14.4972 113.279 15.0142C114.097 15.5256 114.745 16.2841 115.222 17.2898C115.705 18.2898 115.947 19.517 115.947 20.9716C115.947 22.4091 115.711 23.6307 115.239 24.6364C114.768 25.642 114.126 26.4091 113.313 26.9375C112.501 27.4659 111.58 27.7301 110.552 27.7301C109.802 27.7301 109.18 27.6051 108.685 27.3551C108.191 27.1051 107.793 26.804 107.492 26.4517C107.197 26.0937 106.967 25.7557 106.802 25.4375H106.623V27.5H103.589ZM106.614 20.9545C106.614 21.8011 106.734 22.5426 106.972 23.179C107.217 23.8153 107.566 24.3125 108.021 24.6705C108.481 25.0227 109.038 25.1989 109.691 25.1989C110.373 25.1989 110.944 25.017 111.404 24.6534C111.864 24.2841 112.211 23.7812 112.444 23.1449C112.683 22.5028 112.802 21.7727 112.802 20.9545C112.802 20.142 112.685 19.4205 112.452 18.7898C112.219 18.1591 111.873 17.6648 111.413 17.3068C110.952 16.9489 110.379 16.7699 109.691 16.7699C109.032 16.7699 108.472 16.9432 108.012 17.2898C107.552 17.6364 107.202 18.1222 106.964 18.7472C106.731 19.3722 106.614 20.108 106.614 20.9545ZM118.57 27.5V14.4091H121.655V27.5H118.57ZM120.121 12.5511C119.632 12.5511 119.212 12.3892 118.859 12.0653C118.507 11.7358 118.331 11.3409 118.331 10.8807C118.331 10.4148 118.507 10.0199 118.859 9.69602C119.212 9.36648 119.632 9.2017 120.121 9.2017C120.615 9.2017 121.036 9.36648 121.382 9.69602C121.734 10.0199 121.911 10.4148 121.911 10.8807C121.911 11.3409 121.734 11.7358 121.382 12.0653C121.036 12.3892 120.615 12.5511 120.121 12.5511ZM131.364 14.4091V16.7955H123.839V14.4091H131.364ZM125.697 11.2727H128.782V23.5625C128.782 23.9773 128.844 24.2955 128.969 24.517C129.1 24.733 129.271 24.8807 129.481 24.9602C129.691 25.0398 129.924 25.0795 130.18 25.0795C130.373 25.0795 130.549 25.0653 130.708 25.0369C130.873 25.0085 130.998 24.983 131.083 24.9602L131.603 27.3722C131.438 27.429 131.202 27.4915 130.896 27.5597C130.594 27.6278 130.225 27.6676 129.788 27.679C129.015 27.7017 128.319 27.5852 127.7 27.3295C127.08 27.0682 126.589 26.6648 126.225 26.1193C125.867 25.5739 125.691 24.892 125.697 24.0739V11.2727ZM139.599 27.7557C138.287 27.7557 137.153 27.483 136.199 26.9375C135.25 26.3864 134.52 25.608 134.009 24.6023C133.497 23.5909 133.241 22.4006 133.241 21.0312C133.241 19.6847 133.497 18.5028 134.009 17.4858C134.526 16.4631 135.247 15.6676 136.173 15.0994C137.099 14.5256 138.188 14.2386 139.438 14.2386C140.244 14.2386 141.006 14.3693 141.722 14.6307C142.443 14.8864 143.08 15.2841 143.631 15.8239C144.188 16.3636 144.625 17.0511 144.943 17.8864C145.261 18.7159 145.42 19.7045 145.42 20.8523V21.7983H134.69V19.7188H142.463C142.457 19.1278 142.33 18.6023 142.08 18.142C141.83 17.6761 141.48 17.3097 141.031 17.0426C140.588 16.7756 140.071 16.642 139.48 16.642C138.849 16.642 138.295 16.7955 137.818 17.1023C137.341 17.4034 136.969 17.8011 136.702 18.2955C136.44 18.7841 136.307 19.321 136.301 19.9062V21.7216C136.301 22.483 136.44 23.1364 136.719 23.6818C136.997 24.2216 137.386 24.6364 137.886 24.9261C138.386 25.2102 138.972 25.3523 139.642 25.3523C140.091 25.3523 140.497 25.2898 140.861 25.1648C141.224 25.0341 141.54 24.8438 141.807 24.5938C142.074 24.3438 142.276 24.0341 142.412 23.6648L145.293 23.9886C145.111 24.75 144.764 25.4148 144.253 25.983C143.747 26.5455 143.099 26.983 142.31 27.2955C141.52 27.6023 140.616 27.7557 139.599 27.7557Z" fill="#111928"/>
<defs>
<linearGradient id="paint0_linear_20_230" x1="20.0601" y1="26.2699" x2="23.2076" y2="15.3068" gradientUnits="userSpaceOnUse">
<stop stop-color="#1724C9"/>
<stop offset="1" stop-color="#1C64F2"/>
</linearGradient>
<linearGradient id="paint1_linear_20_230" x1="27.3094" y1="12.9003" x2="19.0298" y2="4.6498" gradientUnits="userSpaceOnUse">
<stop stop-color="#1C64F2"/>
<stop offset="1" stop-color="#0092FF"/>
</linearGradient>
<linearGradient id="paint2_linear_20_230" x1="16.1645" y1="7.52115" x2="3.67431" y2="8.3104" gradientUnits="userSpaceOnUse">
<stop stop-color="#0092FF"/>
<stop offset="1" stop-color="#45B2FF"/>
</linearGradient>
<linearGradient id="paint3_linear_20_230" x1="15.3197" y1="31.1627" x2="26.5366" y2="28.1359" gradientUnits="userSpaceOnUse">
<stop stop-color="#1C64F2"/>
<stop offset="1" stop-color="#0092FF"/>
</linearGradient>
<linearGradient id="paint4_linear_20_230" x1="7.26876" y1="18.1827" x2="15.2324" y2="26.4347" gradientUnits="userSpaceOnUse">
<stop stop-color="#1724C9"/>
<stop offset="1" stop-color="#1C64F2"/>
</linearGradient>
<linearGradient id="paint5_linear_20_230" x1="25.4504" y1="24.1357" x2="31.0069" y2="12.9345" gradientUnits="userSpaceOnUse">
<stop stop-color="#0092FF"/>
<stop offset="1" stop-color="#45B2FF"/>
</linearGradient>
<linearGradient id="paint6_linear_20_230" x1="5.36387" y1="11.631" x2="2.39054" y2="22.8066" gradientUnits="userSpaceOnUse">
<stop stop-color="#1C64F2"/>
<stop offset="1" stop-color="#0092FF"/>
</linearGradient>
<linearGradient id="paint7_linear_20_230" x1="20.5431" y1="11.0994" x2="9.67768" y2="13.8047" gradientUnits="userSpaceOnUse">
<stop stop-color="#1724C9"/>
<stop offset="1" stop-color="#1C64F2"/>
</linearGradient>
<linearGradient id="paint8_linear_20_230" x1="6.40676" y1="23.8567" x2="13.3325" y2="34.2746" gradientUnits="userSpaceOnUse">
<stop stop-color="#0092FF"/>
<stop offset="1" stop-color="#45B2FF"/>
</linearGradient>
</defs>
</svg>
