<svg width="16" height="16" viewBox="0 0 16 16" fill="none" xmlns="http://www.w3.org/2000/svg">
<path d="M0 8.00012C0 3.58184 3.58172 0.00012207 8 0.00012207C12.4183 0.00012207 16 3.58184 16 8.00012C16 12.4184 12.4183 16.0001 8 16.0001C3.58172 16.0001 0 12.4184 0 8.00012Z" fill="#D5F5F6"/>
<g clip-path="url(#clip0_20_131)">
<path d="M6.86216 11.3334C6.7316 11.334 6.60601 11.2727 6.51227 11.1625L4.15098 8.38506C4.10391 8.32936 4.06636 8.26297 4.04046 8.18968C4.01456 8.11639 4.00083 8.03763 4.00004 7.95791C3.99844 7.79689 4.04968 7.64171 4.14248 7.52649C4.23528 7.41127 4.36203 7.34545 4.49486 7.34352C4.62769 7.34159 4.75571 7.4037 4.85077 7.51619L6.86416 9.88347L11.1489 4.83929C11.2441 4.7268 11.3722 4.66475 11.5051 4.6668C11.6381 4.66884 11.7649 4.73481 11.8577 4.85019C11.9505 4.96557 12.0016 5.12091 12 5.28204C11.9983 5.44317 11.9439 5.59688 11.8487 5.70937L7.21206 11.1625C7.11831 11.2727 6.99273 11.334 6.86216 11.3334Z" fill="#0694A2"/>
</g>
<defs>
<clipPath id="clip0_20_131">
<rect width="8" height="8" fill="white" transform="translate(4 4.00012)"/>
</clipPath>
</defs>
</svg>
