<svg width="20" height="20" viewBox="0 0 20 20" fill="none" xmlns="http://www.w3.org/2000/svg">
<g clip-path="url(#clip0_20_1039)">
<path d="M19.8168 8.1024C19.3311 5.57642 17.8882 3.33506 15.7887 1.84537C13.6892 0.355677 11.0951 -0.267429 8.547 0.105894C5.99888 0.479216 3.69328 1.82017 2.11064 3.84932C0.528004 5.87848 -0.209589 8.43931 0.0515635 10.9982C0.241914 12.7078 0.866575 14.3404 1.86625 15.7411C2.86593 17.1419 4.20745 18.2642 5.76348 19.0015C7.07019 19.6456 8.50557 19.9869 9.96269 20.0001H9.97468C10.3727 20.0018 10.767 19.9246 11.135 19.7731C11.5029 19.6216 11.8371 19.3987 12.1183 19.1174C12.3983 18.8412 12.6205 18.5122 12.7721 18.1494C12.9236 17.7867 13.0015 17.3975 13.0011 17.0045V16.1457C12.9875 16.0045 13.003 15.862 13.0466 15.727C13.0902 15.592 13.161 15.4674 13.2547 15.3607C13.3484 15.2541 13.4629 15.1677 13.5912 15.107C13.7196 15.0462 13.859 15.0123 14.0009 15.0074H16.7004C17.3261 15.0112 17.937 14.818 18.4464 14.4552C18.9558 14.0923 19.3377 13.5783 19.5379 12.9863C20.0381 11.4072 20.134 9.72806 19.8168 8.1024ZM4.50272 11.0132C4.30498 11.0132 4.11167 10.9546 3.94726 10.8449C3.78284 10.7352 3.65469 10.5792 3.57902 10.3967C3.50334 10.2143 3.48354 10.0135 3.52212 9.81981C3.5607 9.62611 3.65592 9.44819 3.79575 9.30854C3.93557 9.16889 4.11372 9.07379 4.30767 9.03526C4.50161 8.99673 4.70264 9.0165 4.88533 9.09208C5.06802 9.16766 5.22417 9.29565 5.33403 9.45986C5.44389 9.62407 5.50253 9.81713 5.50253 10.0146C5.50253 10.2795 5.39719 10.5334 5.20969 10.7207C5.02219 10.908 4.76789 11.0132 4.50272 11.0132ZM7.20921 7.22568C7.06939 7.36536 6.89125 7.46049 6.69729 7.49904C6.50334 7.5376 6.3023 7.51784 6.11959 7.44227C5.93688 7.3667 5.78071 7.23872 5.67084 7.0745C5.56096 6.91028 5.50232 6.71721 5.50232 6.5197C5.50232 6.3222 5.56096 6.12913 5.67084 5.96491C5.78071 5.80069 5.93688 5.67271 6.11959 5.59714C6.3023 5.52157 6.50334 5.50181 6.69729 5.54037C6.89125 5.57892 7.06939 5.67405 7.20921 5.81373C7.39664 6.00099 7.50194 6.25493 7.50194 6.5197C7.50194 6.78448 7.39664 7.03842 7.20921 7.22568ZM10.0807 5.60404C9.88292 5.60404 9.68962 5.54547 9.5252 5.43575C9.36078 5.32603 9.23263 5.17008 9.15696 4.98762C9.08129 4.80516 9.06149 4.60438 9.10007 4.41068C9.13864 4.21698 9.23387 4.03906 9.37369 3.89941C9.51352 3.75976 9.69167 3.66466 9.88561 3.62613C10.0796 3.5876 10.2806 3.60737 10.4633 3.68295C10.646 3.75853 10.8021 3.88651 10.912 4.05072C11.0218 4.21494 11.0805 4.40799 11.0805 4.60549C11.0805 4.87032 10.9751 5.1243 10.7876 5.31157C10.6001 5.49883 10.3458 5.60404 10.0807 5.60404ZM14.2079 7.22568C14.0681 7.36536 13.8899 7.46049 13.696 7.49904C13.502 7.5376 13.301 7.51784 13.1183 7.44227C12.9356 7.3667 12.7794 7.23872 12.6695 7.0745C12.5596 6.91028 12.501 6.71721 12.501 6.5197C12.501 6.3222 12.5596 6.12913 12.6695 5.96491C12.7794 5.80069 12.9356 5.67271 13.1183 5.59714C13.301 5.52157 13.502 5.50181 13.696 5.54037C13.8899 5.57892 14.0681 5.67405 14.2079 5.81373C14.3953 6.00099 14.5006 6.25493 14.5006 6.5197C14.5006 6.78448 14.3953 7.03842 14.2079 7.22568Z" fill="#1A56DB"/>
</g>
<defs>
<clipPath id="clip0_20_1039">
<rect width="20" height="20" fill="white"/>
</clipPath>
</defs>
</svg>
