<svg width="24" height="24" viewBox="0 0 24 24" fill="none" xmlns="http://www.w3.org/2000/svg">
<path fill-rule="evenodd" clip-rule="evenodd" d="M22 5.89213C21.2512 6.22033 20.4573 6.43437 19.645 6.52713C20.4962 6.0251 21.1359 5.23078 21.445 4.29213C20.6377 4.7627 19.7571 5.09431 18.84 5.27313C18.4536 4.86973 17.9894 4.54891 17.4755 4.3301C16.9616 4.11129 16.4086 3.99904 15.85 4.00013C15.3156 3.99591 14.7856 4.09702 14.2903 4.2977C13.795 4.49837 13.3441 4.79467 12.9634 5.16966C12.5826 5.54465 12.2795 5.99099 12.0713 6.48317C11.8631 6.97535 11.7539 7.50374 11.75 8.03813C11.7493 8.34749 11.7846 8.65588 11.855 8.95713C10.2296 8.87962 8.63813 8.46404 7.18233 7.73691C5.72653 7.00978 4.43834 5.98709 3.4 4.73413C3.03722 5.34953 2.8456 6.05075 2.845 6.76513C2.84547 7.43275 3.01241 8.08971 3.33072 8.67657C3.64903 9.26342 4.10866 9.76164 4.668 10.1261C4.01779 10.1069 3.38112 9.93568 2.809 9.62613V9.67613C2.8148 10.6149 3.14597 11.5226 3.74609 12.2445C4.3462 12.9664 5.1781 13.4579 6.1 13.6351C5.74707 13.7294 5.38331 13.7772 5.018 13.7771C4.75836 13.7765 4.49931 13.7524 4.244 13.7051C4.51331 14.5121 5.02652 15.2155 5.71275 15.7184C6.39898 16.2212 7.22439 16.4985 8.075 16.5121C6.34562 17.8405 4.16557 18.4406 2 18.1841C3.88216 19.3742 6.06415 20.0041 8.291 20.0001C9.8157 20.0231 11.3297 19.7425 12.745 19.1749C14.1603 18.6072 15.4485 17.7638 16.5348 16.6936C17.6211 15.6235 18.4836 14.348 19.0724 12.9413C19.6611 11.5347 19.9642 10.025 19.964 8.50013C19.964 8.32313 19.964 8.15113 19.952 7.97713C20.7548 7.41169 21.4486 6.70565 22 5.89313V5.89213Z" fill="#6B7280"/>
</svg>
