<svg width="16" height="16" viewBox="0 0 16 16" fill="none" xmlns="http://www.w3.org/2000/svg">
<g clip-path="url(#clip0_20_1030)">
<path d="M11.6538 3.78953C11.6538 5.56405 10.0622 7.07901 8 7.07901C5.93784 7.07901 4.34615 5.56405 4.34615 3.78953C4.34615 2.01502 5.93784 0.500061 8 0.500061C10.0622 0.500061 11.6538 2.01502 11.6538 3.78953ZM3.69041 10.0252C4.45925 9.32381 5.51068 8.92232 6.61593 8.92111H9.38407C10.4893 8.92232 11.5407 9.32381 12.3096 10.0252C13.0769 10.7252 13.4987 11.664 13.5 12.6323V15.158C13.5 15.2331 13.4677 15.3156 13.3927 15.384C13.3161 15.4539 13.2032 15.5001 13.0769 15.5001H2.92308C2.79681 15.5001 2.68391 15.4539 2.60734 15.384C2.53231 15.3156 2.5 15.2331 2.5 15.158V12.632C2.50136 11.6638 2.92318 10.7251 3.69041 10.0252Z" fill="#6B7280" stroke="#6B7280"/>
</g>
<defs>
<clipPath id="clip0_20_1030">
<rect width="16" height="16" fill="white"/>
</clipPath>
</defs>
</svg>
