<svg width="6" height="10" viewBox="0 0 6 10" fill="none" xmlns="http://www.w3.org/2000/svg">
<path fill-rule="evenodd" clip-rule="evenodd" d="M0.293 9.70706C0.105529 9.51953 0.000213623 9.26522 0.000213623 9.00006C0.000213623 8.73489 0.105529 8.48058 0.293 8.29306L3.586 5.00006L0.293 1.70706C0.110842 1.51845 0.0100473 1.26585 0.0123258 1.00366C0.0146042 0.741458 0.119773 0.490646 0.305182 0.305238C0.49059 0.11983 0.741402 0.0146606 1.0036 0.0123822C1.2658 0.0101037 1.5184 0.110899 1.707 0.293057L5.707 4.29306C5.89447 4.48058 5.99979 4.73489 5.99979 5.00006C5.99979 5.26522 5.89447 5.51953 5.707 5.70706L1.707 9.70706C1.51947 9.89453 1.26516 9.99984 1 9.99984C0.734836 9.99984 0.480528 9.89453 0.293 9.70706Z" fill="#6B7280"/>
</svg>
